<svg xmlns="http://www.w3.org/2000/svg" width="122.664" height="87.001" viewBox="0 0 122.664 87.001"><g transform="translate(0 2.272)"><ellipse cx="61.332" cy="6.815" rx="61.332" ry="6.815" transform="translate(0 71.1)" fill="#f0f2ff"/><path d="M173.547,311.84v15.992H97.586a4.543,4.543,0,0,0-4.543,4.543V369.72a4.543,4.543,0,0,0,3.862,4.543l10.858,1.681h91.771a4.543,4.543,0,0,0,4.543-4.543V336.191a68.146,68.146,0,0,0-.681-9.631l-1.636-11.312a9.086,9.086,0,0,0-9.086-7.814H178.091A4.543,4.543,0,0,0,173.547,311.84Z" transform="translate(-88.455 -307.433)" fill="#fff" stroke="#4550e5" stroke-linecap="round" stroke-linejoin="round" stroke-width="4.543"/><path d="M126.435,375.9a8.314,8.314,0,1,1-8.314-8.314,8.314,8.314,0,0,1,8.314,8.314Z" transform="translate(-88.455 -307.433)" fill="#d6daff" stroke="#4550e5" stroke-linecap="round" stroke-linejoin="round" stroke-width="4.543"/><path d="M185.95,375.9a8.314,8.314,0,1,1-8.314-8.314A8.314,8.314,0,0,1,185.95,375.9Z" transform="translate(-88.455 -307.433)" fill="#d6daff" stroke="#4550e5" stroke-linecap="round" stroke-linejoin="round" stroke-width="4.543"/><rect width="15.901" height="30.121" transform="translate(49.02 38.344)" stroke-width="4.543" stroke="#4550e5" stroke-linecap="round" stroke-linejoin="round" fill="#d6daff"/><rect width="25.078" height="13.811" transform="translate(14.765 38.344)" fill="#d6daff"/><rect width="25.078" height="13.811" transform="translate(14.765 38.344)" stroke-width="4.543" stroke="#4550e5" stroke-linecap="round" stroke-linejoin="round" fill="none"/><rect width="15.901" height="13.811" transform="translate(73.917 38.344)" fill="#d6daff"/><rect width="15.901" height="13.811" transform="translate(73.917 38.344)" stroke-width="4.543" stroke="#4550e5" stroke-linecap="round" stroke-linejoin="round" fill="none"/><rect width="15.901" height="13.811" transform="translate(99.722 38.344)" fill="#d6daff"/><rect width="15.901" height="13.811" transform="translate(99.722 38.344)" stroke-width="4.543" stroke="#4550e5" stroke-linecap="round" stroke-linejoin="round" fill="none"/><path d="M187.9,328.15h15.674l-1.59-11.267H187.9a4.543,4.543,0,0,0-4.543,4.543V323.7a4.543,4.543,0,0,0,4.543,4.452Z" transform="translate(-88.455 -307.433)" fill="#d6daff"/><path d="M187.9,328.15h15.674l-1.59-11.267H187.9a4.543,4.543,0,0,0-4.543,4.543V323.7a4.543,4.543,0,0,0,4.543,4.452Z" transform="translate(-88.455 -307.433)" fill="none" stroke="#4550e5" stroke-linecap="round" stroke-linejoin="round" stroke-width="4.543"/><path d="M103.765,318.973h69.782v8.859H99.222v-4.316A4.543,4.543,0,0,1,103.765,318.973Z" transform="translate(-88.455 -307.433)" fill="none" stroke="#4550e5" stroke-linecap="round" stroke-linejoin="round" stroke-width="4.543"/><rect width="10.585" height="8.859" transform="translate(23.443 11.54)" stroke-width="4.543" stroke="#4550e5" stroke-linecap="round" stroke-linejoin="round" fill="none"/><rect width="10.585" height="8.859" transform="translate(44.068 11.54)" stroke-width="4.543" stroke="#4550e5" stroke-linecap="round" stroke-linejoin="round" fill="none"/><rect width="10.585" height="8.859" transform="translate(64.921 11.54)" stroke-width="4.543" stroke="#4550e5" stroke-linecap="round" stroke-linejoin="round" fill="none"/><rect width="15.901" height="13.811" transform="translate(49.02 38.344)" stroke-width="4.543" stroke="#4550e5" stroke-linecap="round" stroke-linejoin="round" fill="#d6daff"/><line x2="90.635" transform="translate(15.628 29.395)" stroke-width="4.543" stroke="#4550e5" stroke-linecap="round" stroke-linejoin="round" fill="none"/></g></svg>