<svg xmlns="http://www.w3.org/2000/svg" xmlns:xlink="http://www.w3.org/1999/xlink" width="470" height="330" viewBox="0 0 470 330"><defs><clipPath id="a"><rect width="470" height="330" transform="translate(655 130)" fill="#fff" stroke="#707070" stroke-width="1"/></clipPath></defs><g transform="translate(-655 -130)" clip-path="url(#a)"><g transform="translate(662.844 67.837)"><path d="M408.881,243.875A181.725,181.725,0,1,0,61.6,318.837h331.1a181.178,181.178,0,0,0,16.174-74.962Z" fill="#f0f2ff"/><line x2="354.364" transform="translate(49.974 318.837)" stroke-width="4.543" stroke="#4550e5" stroke-linecap="round" stroke-linejoin="round" fill="none"/><line x2="11.358" transform="translate(29.53 318.837)" stroke-width="4.543" stroke="#4550e5" stroke-linecap="round" stroke-linejoin="round" fill="none"/><line x2="11.358" transform="translate(413.425 318.837)" stroke-width="4.543" stroke="#4550e5" stroke-linecap="round" stroke-linejoin="round" fill="none"/><path d="M291.351,198.126l16.31,29.894a22.715,22.715,0,0,1,2.771,10.9v54.518l3.68,3.725a9.086,9.086,0,0,1,2.68,6.406v15.31H291.351Z" fill="#d6daff" stroke="#4550e5" stroke-linecap="round" stroke-linejoin="round" stroke-width="4.543"/><line x2="15.901" transform="translate(297.711 283.991)" stroke-width="4.543" stroke="#4550e5" stroke-linecap="round" stroke-linejoin="round" fill="none"/><path d="M125.981,198.126l-16.31,29.894a22.716,22.716,0,0,0-2.771,10.9v54.518l-3.725,3.725a9.086,9.086,0,0,0-2.635,6.406v15.31h25.442Z" fill="#d6daff" stroke="#4550e5" stroke-linecap="round" stroke-linejoin="round" stroke-width="4.543"/><path d="M240.468,77.279v79.5h-63.6v-79.5H119.621V283.991l3.18,3.18v12.721l-3.18,3.18v15.9H297.711V299.892l-3.18-3.18v-9.541l3.18-3.18V77.279Z" fill="#fff"/><path d="M240.468,77.279v79.5h-63.6v-79.5H119.621V283.991l3.18,3.18v12.721l-3.18,3.18v15.9H297.711V299.892l-3.18-3.18v-9.541l3.18-3.18V77.279Z" fill="none" stroke="#4550e5" stroke-linecap="round" stroke-linejoin="round" stroke-width="4.543"/><rect width="178.091" height="19.081" transform="translate(119.621 239.468)" stroke-width="4.543" stroke="#4550e5" stroke-linecap="round" stroke-linejoin="round" fill="#d6daff"/><path d="M301.118,156.783H116.168a1.59,1.59,0,0,0-1.318,2.453h0a28.258,28.258,0,0,1,4.543,15.628v7.36H297.484v-7.36a28.213,28.213,0,0,1,4.543-15.628h0a1.59,1.59,0,0,0-.909-2.453Z" fill="#d6daff" stroke="#4550e5" stroke-linecap="round" stroke-linejoin="round" stroke-width="4.543"/><path d="M208.666,271.27h0a25.305,25.305,0,0,0-15.9,23.488v24.215h31.8V294.758a25.4,25.4,0,0,0-15.9-23.488Z" fill="#d6daff" stroke="#4550e5" stroke-linecap="round" stroke-linejoin="round" stroke-width="4.543"/><path d="M148.242,277.631h0a25.9,25.9,0,0,0-12.721,23.488v17.855h25.442V301.118a25.987,25.987,0,0,0-12.721-23.488Z" fill="#d6daff" stroke="#4550e5" stroke-linecap="round" stroke-linejoin="round" stroke-width="4.543"/><path d="M148.242,198.126h0a25.9,25.9,0,0,0-12.721,23.488v17.854h25.442V221.614A25.987,25.987,0,0,0,148.242,198.126Z" fill="#d6daff" stroke="#4550e5" stroke-linecap="round" stroke-linejoin="round" stroke-width="4.543"/><path d="M269.089,198.126h0a25.9,25.9,0,0,0-12.721,23.488v17.854h25.305V221.614a25.987,25.987,0,0,0-12.584-23.488Z" fill="#d6daff" stroke="#4550e5" stroke-linecap="round" stroke-linejoin="round" stroke-width="4.543"/><path d="M269.089,277.631h0a25.9,25.9,0,0,0-12.721,23.488v17.854h25.305V301.118a25.987,25.987,0,0,0-12.584-23.488Z" fill="#d6daff" stroke="#4550e5" stroke-linecap="round" stroke-linejoin="round" stroke-width="4.543"/><line y2="41.342" transform="translate(176.864 239.468)" stroke-width="4.543" stroke="#4550e5" stroke-linecap="round" stroke-linejoin="round" fill="none"/><line y2="41.342" transform="translate(240.468 239.468)" stroke-width="4.543" stroke="#4550e5" stroke-linecap="round" stroke-linejoin="round" fill="none"/><line y2="15.901" transform="translate(176.864 182.225)" stroke-width="4.543" stroke="#4550e5" stroke-linecap="round" stroke-linejoin="round" fill="none"/><line y2="15.901" transform="translate(240.468 182.225)" stroke-width="4.543" stroke="#4550e5" stroke-linecap="round" stroke-linejoin="round" fill="none"/><path d="M208.666,191.765h0a25.442,25.442,0,0,0-25.442,25.441v22.261h50.883V217.207A25.442,25.442,0,0,0,208.666,191.765Z" fill="#d6daff" stroke="#4550e5" stroke-linecap="round" stroke-linejoin="round" stroke-width="4.543"/><circle cx="15.901" cy="15.901" r="15.901" transform="translate(192.765 201.306)" fill="#d6daff"/><path d="M220.024,206.167a15.674,15.674,0,0,0-11.358-4.861,15.856,15.856,0,0,0-4.543,31.12Z" fill="#fff"/><circle cx="15.901" cy="15.901" r="15.901" transform="translate(192.765 201.306)" fill="none" stroke="#4550e5" stroke-linecap="round" stroke-linejoin="round" stroke-width="4.543"/><line y2="6.36" transform="translate(176.864 290.351)" stroke-width="4.543" stroke="#4550e5" stroke-linecap="round" stroke-linejoin="round" fill="none"/><line y2="6.36" transform="translate(240.468 290.351)" stroke-width="4.543" stroke="#4550e5" stroke-linecap="round" stroke-linejoin="round" fill="none"/><line y1="19.081" transform="translate(148.242 239.468)" stroke-width="4.543" stroke="#4550e5" stroke-linecap="round" stroke-linejoin="round" fill="none"/><line y1="9.541" transform="translate(132.341 249.009)" stroke-width="4.543" stroke="#4550e5" stroke-linecap="round" stroke-linejoin="round" fill="none"/><line y1="9.541" transform="translate(164.143 249.009)" stroke-width="4.543" stroke="#4550e5" stroke-linecap="round" stroke-linejoin="round" fill="none"/><line y1="19.081" transform="translate(208.666 239.468)" stroke-width="4.543" stroke="#4550e5" stroke-linecap="round" stroke-linejoin="round" fill="none"/><line y1="9.541" transform="translate(192.765 249.009)" stroke-width="4.543" stroke="#4550e5" stroke-linecap="round" stroke-linejoin="round" fill="none"/><line y1="9.541" transform="translate(224.567 249.009)" stroke-width="4.543" stroke="#4550e5" stroke-linecap="round" stroke-linejoin="round" fill="none"/><line y1="19.081" transform="translate(269.089 239.468)" stroke-width="4.543" stroke="#4550e5" stroke-linecap="round" stroke-linejoin="round" fill="none"/><line y1="9.541" transform="translate(253.189 249.009)" stroke-width="4.543" stroke="#4550e5" stroke-linecap="round" stroke-linejoin="round" fill="none"/><line y1="9.541" transform="translate(284.99 249.009)" stroke-width="4.543" stroke="#4550e5" stroke-linecap="round" stroke-linejoin="round" fill="none"/><path d="M144.608,162.689l-2.726-2.726-2.726,2.726a12.357,12.357,0,0,0-3.635,8.814v10.722h12.721V171.5a12.539,12.539,0,0,0-3.635-8.814Z" fill="#fff" stroke="#4550e5" stroke-linecap="round" stroke-linejoin="round" stroke-width="4.543"/><path d="M178,162.689l-2.726-2.726-2.726,2.726a12.357,12.357,0,0,0-3.635,8.814v10.722h12.812V171.5A12.539,12.539,0,0,0,178,162.689Z" fill="#fff" stroke="#4550e5" stroke-linecap="round" stroke-linejoin="round" stroke-width="4.543"/><path d="M211.392,162.689l-2.726-2.726-2.726,2.726a12.357,12.357,0,0,0-3.634,8.814v10.722h12.721V171.5A12.539,12.539,0,0,0,211.392,162.689Z" fill="#fff" stroke="#4550e5" stroke-linecap="round" stroke-linejoin="round" stroke-width="4.543"/><path d="M244.784,162.689l-2.726-2.726-2.726,2.726A12.357,12.357,0,0,0,235.7,171.5v10.722h12.721V171.5A12.539,12.539,0,0,0,244.784,162.689Z" fill="#fff" stroke="#4550e5" stroke-linecap="round" stroke-linejoin="round" stroke-width="4.543"/><path d="M272.588,162.689l2.726-2.726,2.726,2.726a12.539,12.539,0,0,1,3.634,8.814v10.722H268.953V171.5a12.357,12.357,0,0,1,3.635-8.814Z" fill="#fff" stroke="#4550e5" stroke-linecap="round" stroke-linejoin="round" stroke-width="4.543"/><line y2="6.36" transform="translate(160.963 156.783)" stroke-width="4.543" stroke="#4550e5" stroke-linecap="round" stroke-linejoin="round" fill="none"/><line y2="6.36" transform="translate(129.161 156.783)" stroke-width="4.543" stroke="#4550e5" stroke-linecap="round" stroke-linejoin="round" fill="none"/><line y2="6.36" transform="translate(192.765 156.783)" stroke-width="4.543" stroke="#4550e5" stroke-linecap="round" stroke-linejoin="round" fill="none"/><line y2="6.36" transform="translate(224.567 156.783)" stroke-width="4.543" stroke="#4550e5" stroke-linecap="round" stroke-linejoin="round" fill="none"/><line y2="6.36" transform="translate(256.369 156.783)" stroke-width="4.543" stroke="#4550e5" stroke-linecap="round" stroke-linejoin="round" fill="none"/><line y2="6.36" transform="translate(288.171 156.783)" stroke-width="4.543" stroke="#4550e5" stroke-linecap="round" stroke-linejoin="round" fill="none"/><path d="M206.894,296.712h3.635a4.543,4.543,0,0,1,4.543,4.543v17.718H202.351V301.255A4.543,4.543,0,0,1,206.894,296.712Z" fill="#d6daff"/><path d="M210.529,296.712h-3.635a4.543,4.543,0,0,0-4.543,4.543v17.718h.909l11.54-19.127A4.543,4.543,0,0,0,210.529,296.712Z" fill="#fff"/><path d="M206.894,296.712h3.635a4.543,4.543,0,0,1,4.543,4.543v17.718H202.351V301.255A4.543,4.543,0,0,1,206.894,296.712Z" fill="none" stroke="#4550e5" stroke-linecap="round" stroke-linejoin="round" stroke-width="4.543"/><path d="M135.521,102.72h0a21.716,21.716,0,0,0-6.36,15.4v38.707h12.721V118.121A21.943,21.943,0,0,0,135.521,102.72Z" fill="#d6daff"/><path d="M141.882,124.073v-5.951a21.943,21.943,0,0,0-6.36-15.356h0a21.716,21.716,0,0,0-6.36,15.356V145.38Z" fill="#fff"/><path d="M135.521,102.72h0a21.716,21.716,0,0,0-6.36,15.4v38.707h12.721V118.121A21.943,21.943,0,0,0,135.521,102.72Z" fill="none" stroke="#4550e5" stroke-linecap="round" stroke-linejoin="round" stroke-width="4.543"/><path d="M160.963,102.72h0a21.716,21.716,0,0,0-6.5,15.4v38.707h12.721V118.121A21.943,21.943,0,0,0,160.963,102.72Z" fill="#d6daff"/><path d="M167.323,124.073v-5.951a21.943,21.943,0,0,0-6.36-15.356h0a21.716,21.716,0,0,0-6.5,15.356V145.38Z" fill="#fff"/><path d="M160.963,102.72h0a21.716,21.716,0,0,0-6.5,15.4v38.707h12.721V118.121A21.943,21.943,0,0,0,160.963,102.72Z" fill="none" stroke="#4550e5" stroke-linecap="round" stroke-linejoin="round" stroke-width="4.543"/><path d="M256.369,102.72h0a21.716,21.716,0,0,0-6.5,15.4v38.707h12.721V118.121a21.943,21.943,0,0,0-6.224-15.4Z" fill="#d6daff"/><path d="M262.729,124.073v-5.951a21.943,21.943,0,0,0-6.36-15.356h0a21.716,21.716,0,0,0-6.5,15.356V145.38Z" fill="#fff"/><path d="M256.369,102.72h0a21.716,21.716,0,0,0-6.5,15.4v38.707h12.721V118.121a21.943,21.943,0,0,0-6.224-15.4Z" fill="none" stroke="#4550e5" stroke-linecap="round" stroke-linejoin="round" stroke-width="4.543"/><path d="M281.674,102.72h0a21.716,21.716,0,0,0-6.224,15.4v38.707h12.721V118.121A21.944,21.944,0,0,0,281.674,102.72Z" fill="#d6daff"/><path d="M288.171,124.073v-5.951a21.944,21.944,0,0,0-6.5-15.4h0a21.716,21.716,0,0,0-6.224,15.4V145.38Z" fill="#fff"/><path d="M281.674,102.72h0a21.716,21.716,0,0,0-6.224,15.4v38.707h12.721V118.121A21.944,21.944,0,0,0,281.674,102.72Z" fill="none" stroke="#4550e5" stroke-linecap="round" stroke-linejoin="round" stroke-width="4.543"/><line x2="63.604" transform="translate(116.44 89.999)" stroke-width="4.543" stroke="#4550e5" stroke-linecap="round" stroke-linejoin="round" fill="none"/><line x2="63.604" transform="translate(116.44 77.279)" stroke-width="4.543" stroke="#4550e5" stroke-linecap="round" stroke-linejoin="round" fill="none"/><line x2="63.604" transform="translate(237.288 89.999)" stroke-width="4.543" stroke="#4550e5" stroke-linecap="round" stroke-linejoin="round" fill="none"/><line x2="63.604" transform="translate(237.288 77.279)" stroke-width="4.543" stroke="#4550e5" stroke-linecap="round" stroke-linejoin="round" fill="none"/><line x2="184.451" transform="translate(116.44 182.225)" stroke-width="4.543" stroke="#4550e5" stroke-linecap="round" stroke-linejoin="round" fill="none"/><line x2="209.893" transform="translate(103.72 239.468)" stroke-width="4.543" stroke="#4550e5" stroke-linecap="round" stroke-linejoin="round" fill="none"/><line x1="15.901" transform="translate(103.72 283.991)" stroke-width="4.543" stroke="#4550e5" stroke-linecap="round" stroke-linejoin="round" fill="none"/><rect width="57.243" height="12.721" transform="translate(119.621 77.279)" stroke-width="4.543" stroke="#4550e5" stroke-linecap="round" stroke-linejoin="round" fill="#d6daff"/><rect width="57.243" height="12.721" transform="translate(240.468 77.279)" stroke-width="4.543" stroke="#4550e5" stroke-linecap="round" stroke-linejoin="round" fill="#d6daff"/><line y2="31.802" transform="translate(208.666 201.306)" stroke-width="4.543" stroke="#4550e5" stroke-linecap="round" stroke-linejoin="round" fill="none"/><line x2="31.802" transform="translate(192.765 217.207)" stroke-width="4.543" stroke="#4550e5" stroke-linecap="round" stroke-linejoin="round" fill="none"/><rect width="25.442" height="19.081" transform="translate(135.521 220.387)" fill="#d6daff"/><path d="M135.521,220.387v19.081h9.541l11.449-19.081Z" fill="#fff"/><rect width="25.442" height="19.081" transform="translate(135.521 220.387)" stroke-width="4.543" stroke="#4550e5" stroke-linecap="round" stroke-linejoin="round" fill="none"/><rect width="25.442" height="19.081" transform="translate(256.369 220.387)" fill="#d6daff"/><path d="M256.369,220.387v19.081h9.541l11.449-19.081Z" fill="#fff"/><rect width="25.442" height="19.081" transform="translate(256.369 220.387)" stroke-width="4.543" stroke="#4550e5" stroke-linecap="round" stroke-linejoin="round" fill="none"/><rect width="25.442" height="19.081" transform="translate(135.521 299.892)" fill="#d6daff"/><path d="M135.521,299.892v19.081h9.541l11.449-19.081Z" fill="#fff"/><rect width="25.442" height="19.081" transform="translate(135.521 299.892)" stroke-width="4.543" stroke="#4550e5" stroke-linecap="round" stroke-linejoin="round" fill="none"/><rect width="25.442" height="19.081" transform="translate(256.369 299.892)" fill="#d6daff"/><path d="M256.369,299.892v19.081h9.541l11.449-19.081Z" fill="#fff"/><rect width="25.442" height="19.081" transform="translate(256.369 299.892)" stroke-width="4.543" stroke="#4550e5" stroke-linecap="round" stroke-linejoin="round" fill="none"/><path d="M358.907,282.9c0,10.54-3.771,19.672-8,19.672s-8-9.086-8-19.672,8-38.3,8-38.3S358.907,272.315,358.907,282.9Z" fill="#d6daff" stroke="#4550e5" stroke-linecap="round" stroke-linejoin="round" stroke-width="4.543"/><line y2="16.401" transform="translate(351.047 302.572)" stroke-width="4.543" stroke="#4550e5" stroke-linecap="round" stroke-linejoin="round" fill="none"/><path d="M78.142,254.415a12.448,12.448,0,0,1-24.851,0" fill="none" stroke="#4550e5" stroke-linecap="round" stroke-linejoin="round" stroke-width="4.543"/><path d="M57.925,249.872H48.839a2.408,2.408,0,0,1-1.454-.545,1.908,1.908,0,0,0,0,.727l.909,6.769a2.317,2.317,0,0,0,2.272,1.954h5.861a2.226,2.226,0,0,0,2.226-1.954l.909-6.769a1.908,1.908,0,0,0,0-.727,2.181,2.181,0,0,1-1.636.545Z" fill="#fff" stroke="#4550e5" stroke-linecap="round" stroke-linejoin="round" stroke-width="4.543"/><path d="M53.291,240.059a6.906,6.906,0,0,0-6.86,6.906c0,2,1,2.817,2.272,2.817h9.086c1.272,0,2.272-.818,2.272-2.817a6.906,6.906,0,0,0-6.771-6.906Z" fill="#d6daff" stroke="#4550e5" stroke-linecap="round" stroke-linejoin="round" stroke-width="4.543"/><path d="M82.776,249.872H73.69a2.181,2.181,0,0,1-1.408-.545,3.544,3.544,0,0,0,0,.727l.909,6.769a2.317,2.317,0,0,0,2.272,1.954h5.861a2.226,2.226,0,0,0,2.226-1.954l.727-6.951a3.543,3.543,0,0,0,0-.727,2.181,2.181,0,0,1-1.5.727Z" fill="#fff" stroke="#4550e5" stroke-linecap="round" stroke-linejoin="round" stroke-width="4.543"/><path d="M78.142,240.059a6.906,6.906,0,0,0-6.86,6.906c0,2,1,2.817,2.272,2.817h9.086c1.272,0,2.272-.818,2.272-2.817a6.906,6.906,0,0,0-6.771-6.906Z" fill="#d6daff" stroke="#4550e5" stroke-linecap="round" stroke-linejoin="round" stroke-width="4.543"/><line y2="52.201" transform="translate(65.739 268.772)" stroke-width="4.543" stroke="#4550e5" stroke-linecap="round" stroke-linejoin="round" fill="none"/></g></g></svg>