<svg xmlns="http://www.w3.org/2000/svg" width="50.338" height="30.084" viewBox="0 0 50.338 30.084"><g transform="translate(2.272 2.272)"><path d="M358.907,101.539a6.951,6.951,0,0,0-2.726.545,12.675,12.675,0,0,0-25.078,0,6.951,6.951,0,0,0-2.726-.545,7.632,7.632,0,0,0,0,15.265h30.53a7.632,7.632,0,0,0,0-15.265Z" transform="translate(-320.745 -91.263)" fill="#fff"/><path d="M358.907,101.539a6.951,6.951,0,0,0-2.726.545,12.675,12.675,0,0,0-25.078,0,6.951,6.951,0,0,0-2.726-.545,7.632,7.632,0,0,0,0,15.265h30.53a7.632,7.632,0,0,0,0-15.265Z" transform="translate(-320.745 -91.263)" fill="none" stroke="#4550e5" stroke-linejoin="round" stroke-width="4.543"/><path d="M358.907,101.539a6.951,6.951,0,0,0-2.726.545,12.675,12.675,0,0,0-25.078,0,6.951,6.951,0,0,0-2.726-.545,7.632,7.632,0,0,0,0,15.265h30.53a7.632,7.632,0,0,0,0-15.265Z" transform="translate(-320.745 -91.263)" fill="none" stroke="#4550e5" stroke-linejoin="round" stroke-width="4.543"/></g></svg>